<svg width="16" height="16" viewBox="0 0 16 16" fill="none" xmlns="http://www.w3.org/2000/svg">
<g clip-path="url(#clip0_423_373)">
<path d="M8 0.53125C5.96469 0.53125 5.70875 0.540625 4.90906 0.57625C4.10938 0.61375 3.56469 0.739375 3.0875 0.925C2.58696 1.11327 2.13359 1.40859 1.75906 1.79031C1.37757 2.16503 1.08229 2.61835 0.89375 3.11875C0.708125 3.595 0.581563 4.14062 0.545 4.9375C0.509375 5.73906 0.5 5.99406 0.5 8.03219C0.5 10.0684 0.509375 10.3234 0.545 11.1231C0.5825 11.9219 0.708125 12.4666 0.89375 12.9437C1.08594 13.4369 1.34188 13.855 1.75906 14.2722C2.17531 14.6894 2.59344 14.9462 3.08656 15.1375C3.56469 15.3231 4.10844 15.4497 4.90719 15.4862C5.70781 15.5219 5.96281 15.5312 8 15.5312C10.0372 15.5312 10.2913 15.5219 11.0919 15.4862C11.8897 15.4487 12.4362 15.3231 12.9134 15.1375C13.4137 14.9491 13.8667 14.6538 14.2409 14.2722C14.6581 13.855 14.9141 13.4369 15.1062 12.9437C15.2909 12.4666 15.4175 11.9219 15.455 11.1231C15.4906 10.3234 15.5 10.0684 15.5 8.03125C15.5 5.99406 15.4906 5.73906 15.455 4.93844C15.4175 4.14063 15.2909 3.595 15.1062 3.11875C14.9177 2.61834 14.6225 2.16501 14.2409 1.79031C13.8665 1.40845 13.4131 1.11311 12.9125 0.925C12.4344 0.739375 11.8888 0.612813 11.0909 0.57625C10.2903 0.540625 10.0363 0.53125 7.99813 0.53125H8.00094H8ZM7.32781 1.88313H8.00094C10.0034 1.88313 10.2406 1.88969 11.0309 1.92625C11.7622 1.95906 12.1597 2.08187 12.4241 2.18406C12.7738 2.32 13.0241 2.48312 13.2866 2.74563C13.5491 3.00813 13.7113 3.2575 13.8472 3.60812C13.9503 3.87156 14.0722 4.26906 14.105 5.00031C14.1416 5.79063 14.1491 6.02781 14.1491 8.02938C14.1491 10.0309 14.1416 10.2691 14.105 11.0594C14.0722 11.7906 13.9494 12.1872 13.8472 12.4516C13.7269 12.7772 13.535 13.0717 13.2856 13.3131C13.0231 13.5756 12.7738 13.7378 12.4231 13.8738C12.1606 13.9769 11.7631 14.0988 11.0309 14.1325C10.2406 14.1681 10.0034 14.1766 8.00094 14.1766C5.99844 14.1766 5.76031 14.1681 4.97 14.1325C4.23875 14.0988 3.84219 13.9769 3.57781 13.8738C3.25203 13.7537 2.95731 13.5621 2.71531 13.3131C2.4657 13.0713 2.27349 12.7766 2.15281 12.4506C2.05062 12.1872 1.92781 11.7897 1.895 11.0584C1.85938 10.2681 1.85188 10.0309 1.85188 8.0275C1.85188 6.025 1.85938 5.78875 1.895 4.99844C1.92875 4.26719 2.05063 3.86969 2.15375 3.60531C2.28969 3.25563 2.45281 3.00531 2.71531 2.74281C2.97781 2.48031 3.22719 2.31813 3.57781 2.18219C3.84219 2.07906 4.23875 1.95719 4.97 1.92344C5.66188 1.89156 5.93 1.88219 7.32781 1.88125V1.88313ZM12.0041 3.12812C11.8859 3.12812 11.7688 3.1514 11.6596 3.19663C11.5505 3.24186 11.4512 3.30816 11.3677 3.39173C11.2841 3.4753 11.2178 3.57452 11.1726 3.68371C11.1273 3.7929 11.1041 3.90994 11.1041 4.02813C11.1041 4.14631 11.1273 4.26335 11.1726 4.37254C11.2178 4.48173 11.2841 4.58095 11.3677 4.66452C11.4512 4.74809 11.5505 4.81439 11.6596 4.85962C11.7688 4.90485 11.8859 4.92812 12.0041 4.92812C12.2428 4.92812 12.4717 4.8333 12.6405 4.66452C12.8092 4.49574 12.9041 4.26682 12.9041 4.02813C12.9041 3.78943 12.8092 3.56051 12.6405 3.39173C12.4717 3.22295 12.2428 3.12812 12.0041 3.12812ZM8.00094 4.18C7.49007 4.17203 6.98271 4.26577 6.50842 4.45576C6.03412 4.64575 5.60236 4.92819 5.23827 5.28665C4.87417 5.6451 4.58503 6.07241 4.38766 6.54368C4.1903 7.01496 4.08866 7.52078 4.08866 8.03172C4.08866 8.54265 4.1903 9.04848 4.38766 9.51976C4.58503 9.99103 4.87417 10.4183 5.23827 10.7768C5.60236 11.1352 6.03412 11.4177 6.50842 11.6077C6.98271 11.7977 7.49007 11.8914 8.00094 11.8834C9.01207 11.8677 9.97645 11.4549 10.6859 10.7343C11.3954 10.0137 11.793 9.04297 11.793 8.03172C11.793 7.02046 11.3954 6.04976 10.6859 5.32914C9.97645 4.60852 9.01207 4.19578 8.00094 4.18ZM8.00094 5.53094C8.66406 5.53094 9.30003 5.79436 9.76893 6.26326C10.2378 6.73216 10.5013 7.36813 10.5013 8.03125C10.5013 8.69437 10.2378 9.33034 9.76893 9.79924C9.30003 10.2681 8.66406 10.5316 8.00094 10.5316C7.33781 10.5316 6.70185 10.2681 6.23295 9.79924C5.76405 9.33034 5.50063 8.69437 5.50063 8.03125C5.50063 7.36813 5.76405 6.73216 6.23295 6.26326C6.70185 5.79436 7.33781 5.53094 8.00094 5.53094Z" fill="white"/>
</g>
<defs>
<clipPath id="clip0_423_373">
<rect width="15" height="15" fill="white" transform="translate(0.5 0.53125)"/>
</clipPath>
</defs>
</svg>
