<svg width="25" height="26" viewBox="0 0 25 26" fill="none" xmlns="http://www.w3.org/2000/svg">
<path d="M2.67856 9.54277L12.1911 14.4901C12.2865 14.5397 12.3924 14.5656 12.5 14.5656C12.6075 14.5656 12.7135 14.5397 12.8089 14.4901L22.3214 9.54367V18.1374C22.3215 18.8786 22.0379 19.5917 21.5289 20.1305C21.0198 20.6692 20.3239 20.9928 19.5839 21.0347L19.4196 21.0392H5.58034C4.83915 21.0393 4.12603 20.7557 3.58728 20.2466C3.04853 19.7376 2.72499 19.0417 2.68302 18.3017L2.67856 18.1374V9.54277ZM5.58034 4.96777H19.4196C20.1608 4.96772 20.8739 5.2513 21.4127 5.76034C21.9514 6.26937 22.275 6.96527 22.317 7.70527L22.3214 7.86956V8.03385L12.5 13.141L2.67856 8.03385V7.86956C2.67851 7.12837 2.96209 6.41525 3.47112 5.8765C3.98016 5.33774 4.67605 5.0142 5.41606 4.97224L5.58034 4.96777H19.4196H5.58034Z" fill="#C0864F"/>
</svg>
