<svg width="26" height="31" viewBox="0 0 26 31" fill="none" xmlns="http://www.w3.org/2000/svg">
<path d="M10.4603 3.75391C5.78601 3.75391 2.00001 7.54201 2.00001 12.2142C1.99705 14.039 2.58683 15.8154 3.68061 17.2761L9.10731 26.6757C9.13881 26.7363 9.17031 26.7966 9.20901 26.8521L9.22101 26.8728L9.22431 26.871C9.36558 27.0679 9.55189 27.228 9.76769 27.3382C9.98349 27.4484 10.2225 27.5053 10.4648 27.5043C10.9316 27.5043 11.3384 27.2919 11.6183 26.9646L11.6324 26.9727L11.6861 26.8797C11.7653 26.7729 11.8355 26.6589 11.8862 26.5332L17.2028 17.3238C18.3197 15.8548 18.9233 14.0596 18.9206 12.2142C18.9206 7.54201 15.1346 3.75391 10.4603 3.75391ZM10.3766 16.5033C8.07351 16.5033 6.20811 14.637 6.20811 12.3348C6.20811 10.0329 8.07351 8.16631 10.3766 8.16631C12.6797 8.16631 14.5451 10.0329 14.5451 12.3348C14.5451 14.6367 12.6797 16.5033 10.3766 16.5033Z" fill="#C0864F"/>
</svg>
