<svg width="16" height="16" viewBox="0 0 16 16" fill="none" xmlns="http://www.w3.org/2000/svg">
<g clip-path="url(#clip0_423_377)">
<path d="M15.0956 3.63114C14.5737 3.86239 14.0131 4.01864 13.4237 4.08927C14.0319 3.72539 14.4868 3.15269 14.7037 2.47802C14.1324 2.81739 13.5071 3.05627 12.855 3.18427C12.4165 2.71606 11.8356 2.40572 11.2027 2.30144C10.5697 2.19716 9.92004 2.30476 9.35451 2.60755C8.78897 2.91034 8.33922 3.39137 8.07508 3.97596C7.81094 4.56055 7.74719 5.21599 7.89373 5.84052C6.73604 5.78239 5.6035 5.48149 4.56962 4.95733C3.53575 4.43318 2.62363 3.6975 1.89248 2.79802C1.64248 3.22927 1.49873 3.72927 1.49873 4.26177C1.49845 4.74114 1.6165 5.21317 1.84241 5.63598C2.06831 6.05878 2.39508 6.41929 2.79373 6.68552C2.33141 6.67081 1.87928 6.54588 1.47498 6.32114V6.35864C1.47494 7.03098 1.7075 7.68263 2.13322 8.20302C2.55894 8.7234 3.15159 9.08048 3.81061 9.21364C3.38172 9.32972 2.93207 9.34681 2.49561 9.26364C2.68154 9.84215 3.04373 10.348 3.53146 10.7105C4.01919 11.0729 4.60806 11.2738 5.21561 11.2849C4.18425 12.0945 2.91054 12.5337 1.59936 12.5318C1.3671 12.5318 1.13503 12.5183 0.904358 12.4911C2.23528 13.3469 3.78457 13.801 5.36686 13.7993C10.7231 13.7993 13.6512 9.36302 13.6512 5.51552C13.6512 5.39052 13.6481 5.26427 13.6425 5.13927C14.212 4.72738 14.7037 4.21733 15.0944 3.63302L15.0956 3.63114V3.63114Z" fill="white"/>
</g>
<defs>
<clipPath id="clip0_423_377">
<rect width="15" height="15" fill="white" transform="translate(0.318726 0.545898)"/>
</clipPath>
</defs>
</svg>
